<?xml version="1.0" encoding="UTF-8"?>
<svg id="Layer_1" data-name="Layer 1" xmlns="http://www.w3.org/2000/svg" viewBox="0 0 1080 1080">
  <defs>
    <style>
      .cls-1 {
        font-family: VAGRoundedStd-Black, 'VAG Rounded Std';
        font-size: 109.56px;
        font-weight: 800;
      }

      .cls-1, .cls-2 {
        fill: #3b1201;
      }
    </style>
  </defs>
  <path class="cls-2" d="m744.72,448.54c-9.81-29.12-40.73-46.16-72.15-43-.15-.67-.34-1.35-.57-2.02-3.94-11.84-18.85-23.78-32.6-30.12,46.67,68.13-152.97,84.17-196.05,36.75-4.89-5.38-3.79-13.91,2.18-18.05,25.49-17.69,84.96-37.12,121.4-21.56,10.24,4.37,9.73,14.15-5.19,7.71-20.51-8.85-65.25,1.41-65.25,17.71,0,12.71,35.39,16.13,37.85,16.17,34.56.54,58.7-7.46,64.41-20.63,6.69-15.43-20.23-33.22-36.85-35.83-52.85-8.29-109.95,3.43-138.91,29.75-8.26,7.5-12.77,18.46-11.84,29.58,4.34,51.98,123.34,67.12,199.29,47.6,9.61-2.47,18.52-5.49,26.43-9.07,11.09-5,20.2-11.09,26.45-18.25,1.64,21.8-1.97,42.62-9.63,61.57-2.86,7.06-6.27,13.86-10.19,20.35-34.25,56.84-106.7,90.47-175.63,70.59,54.48,23.35,126.43,9.33,167.02-31.14,0,0,9.84,5.75,12.68,8.58,16.47,16.44-24.4,42.3-32.53,46.44-73.91,37.63-129.78,23.1-168.96-4.41-107.73-75.66-97-239.95,19.46-301.32,71.85-37.86,167.29-33.7,232.03,37.71-33.78-54.95-96.18-89.13-160.46-89.98-74.69-2-145.57,30.42-185.29,95.72-43,70.71-38.63,161.07,11,227.29,64.38,85.89,187.25,120.78,280.84,51.75.01-.01,82.24-63.76,5.81-87.33l-.31.06c4.29-5.36,8.21-11,11.73-16.9,21.64,6.67,45.26.92,62.39-12.12,0-.01.01-.01.01-.01,19.09-14.53,30.13-38.09,21.43-63.59Zm-26.7,35.51c-6.57,13.11-20.1,23.06-40.48,23.12-2.61,0-5.17-.2-7.66-.6.44-1.02.88-2.04,1.3-3.08,9.69-23.91,12.82-52.34,8.37-78.32-.23-1.34-.48-2.67-.75-3.99,22.19.63,35.91,12.8,41.29,27.79,2.33,4.81,3.63,10.12,3.63,15.7,0,7.04-2.07,13.66-5.7,19.38Z"/>
  <text class="cls-1" transform="translate(267.96 791.9)"><tspan x="0" y="0">Flavorwave</tspan></text>
</svg>